<svg width="192" height="33" viewBox="0 0 192 33" fill="none" xmlns="http://www.w3.org/2000/svg">
<path d="M172.108 12.2434V30.7823H165.646V2.94736C168.689 2.94736 171.683 2.88065 174.668 3.01199C175.176 3.03388 175.804 3.81672 176.111 4.38899C178.99 9.78545 181.81 15.2132 184.653 20.6284C184.832 20.9672 185.063 21.2768 185.478 21.9251V3.08183H192V30.8522C188.912 30.8522 185.865 30.9085 182.823 30.7917C182.361 30.774 181.789 30.0266 181.506 29.4908C178.675 24.1298 175.895 18.7417 173.095 13.364C172.872 12.9366 172.613 12.529 172.37 12.111C172.283 12.1558 172.196 12.1996 172.109 12.2445L172.108 12.2434Z" fill="white"/>
<path d="M34.1642 30.7551H26.5673V2.95871C28.848 2.95871 31.0485 2.89721 33.2376 3.02439C33.5701 3.04419 34.0986 3.93648 34.1142 4.43891C34.1997 7.26483 34.1549 10.0939 34.1549 13.0762H42.7859V3.06816H50.3901V30.7291H42.8255C42.8255 28.0293 42.8484 25.3284 42.8192 22.6276C42.7817 19.1283 43.2633 19.6015 39.7327 19.5567C38.4266 19.54 37.1173 19.5984 35.8133 19.5296C34.5895 19.466 34.1027 19.8778 34.1371 21.1766C34.2205 24.2881 34.1642 27.4038 34.1642 30.7562V30.7551Z" fill="white"/>
<path d="M113.787 1.76618C114.397 2.26861 115.03 2.79086 115.783 3.41212C115.621 3.77904 115.404 4.26584 115.259 4.59419C117.037 6.95729 118.789 9.18801 120.397 11.5167C120.662 11.9003 120.52 13.0386 120.188 13.2575C119.516 13.6995 118.09 14.179 117.843 13.8934C116.099 11.8805 113.505 12.9636 111.585 11.8232C111.457 11.9337 111.327 12.0452 111.199 12.1557C111.866 13.1241 112.355 14.3155 113.235 15.0181C115.869 17.1185 117.397 19.9695 118.915 22.8298C119.11 23.1967 118.79 24.2037 118.412 24.4372C117.085 25.2586 117.454 25.8694 118.442 26.5668C119.18 27.088 120.004 27.5341 120.608 28.1825C120.964 28.565 121.099 29.2864 121.059 29.8347C121.043 30.0421 120.258 30.3465 119.823 30.3496C113.919 30.384 108.015 30.3871 102.11 30.3465C101.636 30.3433 100.764 29.9535 100.767 29.7544C100.776 29.1675 101.033 28.515 101.383 28.0219C101.695 27.5841 102.252 27.3152 102.714 26.99C104.368 25.8256 104.33 25.8611 103.013 24.2162C102.757 23.8951 102.905 23.2103 102.951 22.7005C103.014 21.9969 103.393 21.236 103.221 20.6137C102.769 18.9823 101.983 17.4437 101.524 15.8134C99.8818 9.9844 103.025 4.53165 108.895 2.94304C110.525 2.50211 112.179 2.14978 113.786 1.76514L113.787 1.76618Z" fill="#FD3434"/>
<path d="M73.0548 2.95358V9.03593C70.6584 9.03593 68.339 9.16831 66.0416 8.99632C63.9881 8.84204 64.1205 10.0137 64.0736 11.4063C64.0235 12.8928 64.3852 13.6037 66.0541 13.4536C67.7449 13.3014 69.4596 13.4307 71.1629 13.3921C71.9791 13.3733 72.4617 13.5828 72.4419 14.5147C72.4085 16.0929 72.4325 17.6721 72.4325 19.4838C70.2049 19.4838 68.117 19.5641 66.0385 19.4567C64.5823 19.3817 64.0319 19.8018 64.0704 21.3393C64.1757 25.463 63.8953 24.6718 67.405 24.7583C69.2136 24.8032 71.0242 24.7667 72.9891 24.7667V30.725H56.6351C56.5861 30.3581 56.4808 29.9317 56.4797 29.5054C56.4683 21.2298 56.4923 12.9532 56.4464 4.67873C56.4391 3.39347 56.732 2.89312 58.1507 2.91918C63.077 3.00986 68.0055 2.95462 73.0538 2.95462L73.0548 2.95358Z" fill="white"/>
<path d="M76.6781 23.1373C79.2726 23.818 81.5482 24.4977 83.8644 24.9845C84.8338 25.1877 85.9512 25.1825 86.8842 24.8938C87.5722 24.6811 88.3925 23.9358 88.552 23.2812C88.6833 22.7433 88.0673 21.8271 87.5325 21.3736C86.8164 20.7669 85.8605 20.4396 85.0027 20.0039C83.6361 19.3097 82.2278 18.6905 80.904 17.9233C77.7539 16.097 76.5551 13.2461 76.9252 9.72906C77.2723 6.43302 79.2924 4.32009 82.3102 3.35275C86.6997 1.94553 91.0756 2.43545 95.2911 4.20543C95.6434 4.35345 95.7476 5.13316 95.9155 5.63663C95.954 5.75129 95.7737 5.93267 95.707 6.08799C95.1483 7.38472 94.9168 9.18597 93.9318 9.81766C93.1635 10.3107 91.4707 9.27458 90.1656 9.05776C88.9429 8.85345 87.6691 8.65748 86.4568 8.79612C85.7605 8.87638 84.8265 9.50912 84.592 10.12C84.4189 10.5713 85.0402 11.6606 85.5927 11.9911C87.3887 13.0678 89.3046 13.9507 91.1945 14.867C97.0246 17.694 97.0183 22.5046 95.4995 26.0216C94.4426 28.4692 92.3599 29.9296 89.8738 30.6165C85.8918 31.7173 81.9078 31.5547 78.002 30.088C77.0972 29.7482 76.6114 29.2739 76.6573 28.2284C76.7302 26.548 76.6771 24.8635 76.6771 23.1373H76.6781Z" fill="white"/>
<path d="M22.4561 4.23173C21.5148 6.58024 20.7862 8.39922 20.0034 10.3547C18.8109 9.95029 17.7633 9.55627 16.6927 9.2373C11.9978 7.83737 8.98945 9.4833 8.18264 14.1876C7.84594 16.1515 7.91057 18.2811 8.27645 20.246C8.97068 23.9736 11.4547 25.5956 15.2261 24.992C17.1066 24.6908 18.9401 24.0924 21.0364 23.5681C21.0364 25.4538 21.0687 27.2936 21.0041 29.1293C20.9936 29.4315 20.6163 29.8568 20.3057 29.9924C16.3289 31.73 7.43941 32.4878 3.51168 27.5334C2.24726 25.9395 1.16838 23.984 0.692009 22.0274C-0.458792 17.2939 -0.351425 12.5354 2.37964 8.24494C5.42134 3.46453 10.1111 2.17926 15.4095 2.71297C17.6799 2.94125 19.9012 3.66467 22.4561 4.23278V4.23173Z" fill="white"/>
<path d="M123.646 9.09939V3.02954H144.672C144.672 4.81724 144.721 6.55387 144.623 8.28215C144.607 8.56985 143.969 9.01808 143.586 9.05353C142.459 9.15881 141.317 9.09418 140.182 9.09835C138.683 9.10391 137.932 9.82976 137.93 11.2759C137.929 17.1143 137.93 22.9538 137.93 28.7922C137.93 29.4052 137.93 30.0171 137.93 30.7488H130.511C130.479 30.0358 130.42 29.3228 130.419 28.6109C130.407 22.7151 130.369 16.8193 130.43 10.9246C130.445 9.5226 130.018 8.99202 128.599 9.07854C127.023 9.17444 125.435 9.10043 123.646 9.10043V9.09939Z" fill="white"/>
<path d="M150.748 11.5C150.669 11.078 150.647 10.8298 150.748 10.5275C152.169 10.0275 151.95 8.86831 152 8C152.025 7.55177 151.824 6.94391 151.642 6.46858C150.703 4.02626 150.924 3.60305 153.416 2.99534C153.681 2.93071 153.941 2.84315 153.789 2.88797C154.01 1.74968 154.156 0.883447 154.384 0.0391101C154.402 -0.0265605 155.246 -0.0088376 155.272 0.0870624C155.483 0.865729 155.59 1.67254 155.729 2.47101C155.596 2.52939 155.462 2.58776 155.329 2.64613C155.458 2.74099 155.573 2.87858 155.718 2.92445C158.453 3.78338 158.739 4.32438 157.495 6.9658C157 8.5 157 9.5 158.12 10.6538C158.279 10.7622 158.139 11.7942 157.917 11.8901C156.885 12.3372 156.905 13.1368 156.957 14.0092C157.088 16.2139 156.903 18.4957 157.429 20.6013C157.945 22.6694 158.976 24.6948 160.164 26.4856C161.184 28.0211 160.952 29.5461 160.674 31.0096C160.575 31.5277 159.132 32.0718 158.279 32.1135C155.807 32.2334 153.3 32.3053 150.853 32.0145C148.464 31.7309 147.557 29.1125 149.08 27.207C151.622 24.0256 152.767 20.4325 152.63 16.3974C152.628 16.3411 152.632 16.2837 152.628 16.2275C152.523 14.4252 153.167 12.578 150.748 11.5Z" fill="white"/>
</svg>
