<svg width="161" height="28" viewBox="0 0 161 28" fill="none" xmlns="http://www.w3.org/2000/svg">
<path d="M144.32 10.2664V25.812H138.901V2.47124C141.453 2.47124 143.963 2.4153 146.467 2.52543C146.892 2.54379 147.419 3.20023 147.676 3.6801C150.091 8.20526 152.455 12.7566 154.839 17.2975C154.989 17.5816 155.183 17.8412 155.531 18.3849V2.58399H161V25.8706C158.411 25.8706 155.855 25.9178 153.305 25.8199C152.917 25.805 152.437 25.1783 152.201 24.729C149.827 20.2336 147.495 15.7154 145.148 11.206C144.961 10.8476 144.743 10.5059 144.539 10.1553C144.467 10.1929 144.393 10.2296 144.321 10.2672L144.32 10.2664Z" fill="white"/>
<path d="M28.6482 25.7897H22.2778V2.48122C24.1903 2.48122 26.0355 2.42965 27.8711 2.53628C28.15 2.55289 28.5931 3.30111 28.6062 3.72242C28.6779 6.09208 28.6403 8.46435 28.6403 10.9651H35.8778V2.57299H42.2543V25.7678H35.911C35.911 23.5039 35.9302 21.2392 35.9057 18.9744C35.8743 16.0401 36.2781 16.4369 33.3176 16.3993C32.2223 16.3853 31.1245 16.4343 30.031 16.3766C29.0048 16.3233 28.5966 16.6685 28.6255 17.7577C28.6954 20.3668 28.6482 22.9795 28.6482 25.7905V25.7897Z" fill="white"/>
<path d="M95.4153 1.48134C95.9267 1.90265 96.4572 2.34058 97.0892 2.86153C96.9528 3.16921 96.771 3.57741 96.6495 3.85275C98.1407 5.83431 99.6092 7.70486 100.958 9.65757C101.18 9.97924 101.061 10.9337 100.782 11.1173C100.219 11.4879 99.0236 11.89 98.8164 11.6505C97.354 9.96263 95.1784 10.8708 93.5684 9.91456C93.4609 10.0072 93.3525 10.1007 93.245 10.1934C93.8044 11.0054 94.2143 12.0045 94.9521 12.5936C97.1609 14.3549 98.4423 16.7456 99.715 19.1441C99.8784 19.4517 99.6101 20.2961 99.2937 20.4919C98.1809 21.1807 98.4904 21.6929 99.3181 22.2777C99.937 22.7147 100.628 23.0888 101.134 23.6325C101.433 23.9533 101.546 24.5582 101.513 25.0179C101.5 25.1919 100.842 25.4471 100.476 25.4497C95.5254 25.4786 90.5746 25.4812 85.6238 25.4471C85.2261 25.4445 84.4945 25.1176 84.4971 24.9506C84.5049 24.4585 84.72 23.9113 85.0137 23.4979C85.275 23.1308 85.7426 22.9053 86.1299 22.6325C87.517 21.6562 87.4847 21.6859 86.3807 20.3066C86.1657 20.0374 86.2898 19.4631 86.3283 19.0357C86.3816 18.4457 86.6989 17.8076 86.5547 17.2857C86.1762 15.9178 85.5171 14.6276 85.1317 13.2606C83.755 8.37266 86.3904 3.8003 91.3132 2.46819C92.6794 2.09845 94.0666 1.80301 95.4144 1.48047L95.4153 1.48134Z" fill="black"/>
<path d="M61.2595 2.47692V7.57723C59.25 7.57723 57.3051 7.68823 55.3786 7.54401C53.6567 7.41464 53.7677 8.39713 53.7283 9.56491C53.6864 10.8114 53.9897 11.4075 55.3891 11.2816C56.8069 11.154 58.2448 11.2624 59.673 11.23C60.3574 11.2143 60.7621 11.39 60.7455 12.1714C60.7175 13.4948 60.7377 14.819 60.7377 16.3382C58.8697 16.3382 57.1189 16.4055 55.376 16.3155C54.1549 16.2526 53.6934 16.6048 53.7257 17.8941C53.814 21.352 53.5789 20.6886 56.5219 20.7611C58.0385 20.7987 59.5568 20.7681 61.2044 20.7681V25.7644H47.4908C47.4498 25.4567 47.3615 25.0992 47.3606 24.7417C47.351 17.8023 47.3711 10.8621 47.3326 3.92354C47.3265 2.84578 47.5721 2.42622 48.7618 2.44807C52.8927 2.52412 57.0254 2.4778 61.2586 2.4778L61.2595 2.47692Z" fill="white"/>
<path d="M64.2978 19.4008C66.4734 19.9716 68.3816 20.5415 70.3238 20.9497C71.1367 21.1201 72.0737 21.1158 72.856 20.8736C73.4329 20.6953 74.1208 20.0703 74.2546 19.5214C74.3647 19.0704 73.8481 18.3021 73.3997 17.9218C72.7992 17.4131 71.9977 17.1386 71.2783 16.7733C70.1324 16.1911 68.9515 15.6719 67.8414 15.0286C65.1999 13.4972 64.1947 11.1066 64.505 8.15739C64.796 5.39352 66.49 3.62174 69.0205 2.81059C72.7013 1.63057 76.3707 2.04139 79.9055 3.52559C80.201 3.64971 80.2884 4.30353 80.4291 4.72572C80.4615 4.82187 80.3102 4.97396 80.2543 5.1042C79.7858 6.19157 79.5917 7.70199 78.7657 8.23169C78.1215 8.64513 76.702 7.77629 75.6076 7.59448C74.5823 7.42316 73.5142 7.25883 72.4976 7.37508C71.9137 7.44238 71.1306 7.97296 70.9339 8.48517C70.7888 8.86365 71.3098 9.77708 71.773 10.0542C73.2791 10.9571 74.8856 11.6974 76.4704 12.4658C81.3591 14.8363 81.3539 18.8702 80.0804 21.8194C79.194 23.8718 77.4476 25.0964 75.3629 25.6724C72.0239 26.5954 68.6831 26.4591 65.4079 25.2292C64.6492 24.9443 64.2419 24.5466 64.2803 23.6698C64.3415 22.2608 64.2969 20.8483 64.2969 19.4008H64.2978Z" fill="white"/>
<path d="M18.8303 3.54768C18.041 5.517 17.43 7.04228 16.7736 8.68207C15.7736 8.34293 14.8952 8.01253 13.9975 7.74505C10.0606 6.57115 7.53797 7.95134 6.86143 11.8961C6.5791 13.5429 6.63329 15.3286 6.9401 16.9763C7.52224 20.102 9.60519 21.4621 12.7676 20.956C14.3445 20.7034 15.882 20.2017 17.6398 19.762C17.6398 21.3433 17.6669 22.886 17.6127 24.4253C17.604 24.6788 17.2876 25.0354 17.0271 25.149C13.6924 26.6061 6.2382 27.2416 2.94464 23.0871C1.88437 21.7506 0.979686 20.1108 0.580227 18.4701C-0.384767 14.5009 -0.294736 10.5107 1.99538 6.91292C4.54597 2.90435 8.47849 1.8266 12.9215 2.27413C14.8253 2.46556 16.6879 3.07217 18.8303 3.54855V3.54768Z" fill="white"/>
<path d="M103.683 7.63084V2.54102H121.314C121.314 4.04008 121.355 5.49631 121.273 6.94555C121.259 7.1868 120.724 7.56266 120.403 7.59238C119.458 7.68066 118.5 7.62647 117.548 7.62996C116.291 7.63462 115.662 8.24328 115.66 9.45594C115.659 14.3517 115.66 19.2484 115.66 24.1441C115.66 24.6581 115.66 25.1712 115.66 25.7848H109.439C109.412 25.1869 109.362 24.589 109.362 23.992C109.352 19.0482 109.32 14.1043 109.371 9.16136C109.383 7.98571 109.026 7.54081 107.835 7.61336C106.514 7.69377 105.183 7.63171 103.683 7.63171V7.63084Z" fill="white"/>
<path d="M126.408 9.64323C126.342 9.28934 126.323 9.08124 126.408 8.82776C127.6 8.40849 127.416 7.43645 127.458 6.70833C127.479 6.33247 127.311 5.82276 127.158 5.42417C126.37 3.37618 126.555 3.02131 128.645 2.51172C128.867 2.45752 129.086 2.3841 128.958 2.42168C129.144 1.46718 129.266 0.740807 129.457 0.0327955C129.472 -0.0222721 130.18 -0.00741069 130.202 0.0730055C130.379 0.72595 130.469 1.40249 130.585 2.07205C130.473 2.12099 130.361 2.16994 130.249 2.21889C130.358 2.29843 130.454 2.41381 130.575 2.45227C132.869 3.17252 133.109 3.62618 132.066 5.84112C131.651 7.1276 131.651 7.96615 132.59 8.93364C132.723 9.02455 132.606 9.88989 132.42 9.97031C131.554 10.3453 131.571 11.0157 131.615 11.7473C131.725 13.596 131.569 15.5094 132.011 17.2751C132.443 19.0093 133.308 20.7076 134.304 22.2093C135.159 23.4968 134.965 24.7756 134.732 26.0028C134.649 26.4373 133.439 26.8935 132.723 26.9285C130.651 27.029 128.548 27.0893 126.496 26.8455C124.493 26.6077 123.732 24.412 125.009 22.8142C127.141 20.1465 128.101 17.1335 127.986 13.7499C127.985 13.7027 127.988 13.6546 127.985 13.6074C127.896 12.0961 128.437 10.5472 126.408 9.64323Z" fill="white"/>
</svg>
